<?xml version="1.0" encoding="UTF-8"?>
<svg id="_圖層_1" data-name="圖層_1" xmlns="http://www.w3.org/2000/svg" version="1.1" viewBox="0 0 595.28 841.89">
  <!-- Generator: Adobe Illustrator 29.8.2, SVG Export Plug-In . SVG Version: 2.1.1 Build 3)  -->
  <defs>
    <style>
      .st0 {
        fill: #9c9998;
      }

      .st1 {
        fill: #110f11;
      }

      .st2 {
        fill: #22201e;
      }

      .st3 {
        fill: #89888c;
      }

      .st4 {
        fill: #605e61;
      }

      .st5 {
        fill: #fff;
      }

      .st6 {
        fill: #6f6870;
      }

      .st7 {
        fill: #3a372f;
      }

      .st8 {
        fill: #344552;
      }

      .st9 {
        fill: #302e2f;
      }

      .st10 {
        fill: #2c312e;
      }

      .st11 {
        fill: #767777;
      }

      .st12 {
        fill: #312d39;
      }

      .st13 {
        fill: #dfdee0;
      }

      .st14 {
        fill: #41434b;
      }

      .st15 {
        fill: #c0bec1;
      }

      .st16 {
        fill: #43494e;
      }

      .st17 {
        fill: #494544;
      }

      .st18 {
        fill: #637176;
      }

      .st19 {
        fill: #576069;
      }

      .st20 {
        fill: #66645f;
      }

      .st21 {
        fill: #898a87;
      }

      .st22 {
        fill: #525453;
      }

      .st23 {
        fill: #202027;
      }
    </style>
  </defs>
  <g id="_生成式物件" data-name="生成式物件">
    <path class="st14" d="M536.79,169.09c1.76,41.62,1.92,92.35,0,133.91l-64.76,36.59c-3.85.48-7.75,2.55-11.71,2.2-.96-.09-15.09-5.21-10.98-6.59,6.81-2.28,16.31,9.48,23.78-6.22,14.58-30.62-21.35-96.16-60-90.01l123.67-69.88Z"/>
    <path class="st9" d="M95.91,395.94c-47.26,51.3-46.52,128.08,1.46,178.55-53.8-46.73-54.57-130.8-1.46-178.55Z"/>
    <path class="st9" d="M110.54,417.16c-26.96,32.63-33.03,75.71-13.54,113.79,3.32,6.48,8.93,11.58,12.44,17.56.52.89,1.77,1.56-.37,1.83-36.08-37.38-36.53-97.02,1.46-133.18Z"/>
    <path class="st9" d="M128.84,441.3l-11.34,24.51c-5.45,21.66-.51,42.34,12.07,60.37-23.26-22.93-22.46-61.04-.73-84.88Z"/>
    <path class="st9" d="M142.74,450.82c-1.64,6.86-6.43,13.1-7.68,20.12-2.84,15.91.49,30.55,8.42,44.27-17.18-18.09-16.17-45.65-.73-64.39Z"/>
    <g>
      <path class="st9" d="M396.66,393.74c55.38,47.95,54.34,133.06-.73,180.74,49.24-51.32,50.27-129.14.73-180.74Z"/>
      <path class="st9" d="M381.29,412.03c43.37,37.74,41.95,106.37-2.2,142.69,39.6-39.44,40.55-102.02,2.2-142.69Z"/>
      <path class="st9" d="M366.66,440.57c23.85,22.85,21.73,62.53-.73,85.61,18.5-26.55,20.36-59.1.73-85.61Z"/>
      <path class="st9" d="M354.22,450.08c16.11,17.99,15.56,45.01.73,63.66l7.68-23.05c1.33-14.74-1.8-27.64-8.42-40.61Z"/>
      <g>
        <path class="st1" d="M536.79,169.09l-123.67,69.88c38.66-6.16,74.58,59.38,60,90.01-7.47,15.7-16.97,3.94-23.78,6.22-4.12,1.38,10.02,6.5,10.98,6.59,3.96.36,7.86-1.72,11.71-2.2l64.76-36.59c-.02.48,2.13,3.79-.37,5.12-16.81,5.91-61.76,39.36-77.57,37.32-2.96-.38-11.89-7.83-13.9-8.05-2.71-.29-7.48,3.4-10.98,2.2-1.79-.87-2.15-8.7-1.83-10.61.24-1.42,4.99-6.39,2.56-7.68-16.6,18.64-26.48,38.54-49.03,51.22-8.19,4.61-19.59,7.12-27.07,12.44-15.96,11.34-15.25,30.72-32.93,43.17-2.42,1.71-13.28,6.04-13.9,6.59-2.74,2.42-4.59,14.08-12.44,19.03s-9.89,1.1-13.9,2.2c-.3.08-2.45,3.69-4.39,4.39-6.22,2.24-12.85,3.72-19.39,4.76,11.98,5.3,6.45,17.02-4.39,19.03.92,1.6,3.34-.05,4.02.37,4.17,2.57,3.8,8.02,5.12,8.78s9.59.47,12.44,2.2c3.51,2.13,2.54,5.9,3.29,6.95,1.88,2.63,14.75,4.12,18.66,5.49,27.42,9.56,53.26,34.26,63.3,61.83,1.99,5.46,8.77,32.28,8.05,36.59-.24,1.47-4.39,5.49-4.39,5.85,0,2.02,26.94,23.8,27.81,29.27,2.54,16.07-24.93,22.54-36.22,25.25-54.15,12.95-130.88,12.43-185.86,3.66-12.74-2.03-60.02-9.45-55.98-28.9,1.19-5.75,26.35-26.99,26.34-29.27,0-.54-3.78-2.97-3.66-9.51.84-45.44,33.94-83.15,75-96.96,1.62-.54,8.48-.92,9.51-1.46,2.28-1.2,2.58-7.5,8.78-9.51,2.91-.94,8.4-.24,9.51-.73,2.15-.96.52-5.47,1.1-6.95.54-1.39,5.12-4.05,5.12-4.39,0-.88-8.77-2.88-7.32-10.98.54-2.99,4.84-5.02,5.49-7.68-4.86,1.37-26.21-5.98-27.44-9.88-1.86-5.91,4.15-7.87,4.39-8.78.14-.53-1.12-8.36-.73-10.98.19-1.31,2.87-5.97,2.93-6.59.82-8.63-5.54-31.82-5.85-42.44-.29-9.67,2.28-21.47,2.2-31.47l-15.37,23.42c-.64,18.91-16.05,37.3-35.49,39.88-.33.04-5.76-1.5-6.59-1.46-1.13.05-7.62,7.74-6.22-4.76.91-8.08,11.07-16.23,12.44-20.49,2.05-6.37.26-19.28,5.12-26.34-12.45,13.65-18.94,13.86-36.22,12.07-.38-.04-4.87,3.88-6.22-1.1-2.72-10.04,18.19-19.41,24.15-24.88-6.69-.23-15.89,1.62-22.32-.37-3.45-1.06-5.83-5.15-10.61-5.49,3.31-11.18,17.62-10.9,25.98-15,13.19-6.48,29.11-18.76,40.98-27.81,3.98-3.03,6.06-7.97,11.71-10.98,10.09-5.37,25.61-6.18,35.86-12.44,9.15-5.6,17.65-22.48,25.61-25.61,4.65-1.83,19.39-5.22,24.15-5.12,25.78.54,58.21,10.03,84.88,10.98,14.49.51,9.18-1.29,17.56-7.32,9.62-6.92,17.45-14.17,27.81-20.49,37.49-22.88,81.34-38.07,116.35-65.86,1.05.68.33,3.56.37,4.39Z"/>
        <g>
          <g>
            <path class="st5" d="M272.99,344.71c1.44-.38,17.51,4.67,21.22,5.12,9.26,1.12,18.26-.19,27.44.37-2.74,40.75-60.21,48.25-46.47,94.03l-23.78-4.02c6.55-14.51,3.15-31.55,4.39-46.1.33-3.92,3.19-11.89,3.66-16.83.35-3.74-1.26-16.89-.73-18.29.35-.95,13.29-14.01,14.27-14.27Z"/>
            <path class="st5" d="M170.55,393.74c2.69,3.17-6.17,22.14-8.78,21.22-5.03-1.78,6.77-18.78,8.78-21.22Z"/>
            <path class="st5" d="M145.67,332.27l.73,1.46c-1.49.57-17.72,12.12-17.93,8.42,3.67-6.12,11.38-6.87,17.2-9.88Z"/>
            <path class="st5" d="M150.79,357.15l-13.17,17.56c-4.04-7.76,8.57-12.97,13.17-17.56Z"/>
            <path class="st5" d="M227.62,430.33c.41,4.13,4.5,13.65-.73,14.64-2.42-.89-.6-12.63.73-14.64Z"/>
            <path class="st15" d="M284.7,326.42c0,2.6-2.84,5.4-4.39,7.32,0-2.6,2.84-5.4,4.39-7.32Z"/>
            <g>
              <path class="st5" d="M325.31,343.25c2.16-2.54,3.13-5.78,4.39-8.78.05-.11,2.44-.94,1.1-2.2-1.15.44-.99,2.06-1.1,2.2-2.1,2.63-4.11,5.26-4.39,8.78-1.73-3.28-1.8-3.62-2.93-8.05l9.88-13.17c-3.52,3.83-8.73,7.97-9.88,13.17-.04-.16-2.42-.19-2.2-2.56.19-2.01,5.39-4.97,5.85-7.32-3.18,1.33-9.94,10.87-5.85,2.2-12.68,1.43.59-8.16,4.39-11.71l-12.07,9.15c.82-5.1-.99-1.19-2.2-2.2-10.07-8.44,1.68-9.77,4.02-17.93.16-.55-.51-9.37.37-11.34-6.77,13.35-13.61,27.87-30,30v-8.78c2.5,4.66-17.85,34.25-19.76,33.66-1.1-.34,2.77-8.57-.37-7.68-.24,1.3-.51,10.65-2.56,9.88l-.37-8.42c.57,2.34-1.72,14.21-4.02,14.27-.91.02-2.06-5-4.02-4.02,3.41,2.01,4.5,20.02,2.56,20.85-.11.05-1.16-1.04-1.83-1.46-.41-.74-.36-2.24-1.83-2.93-.99,1.47.95,2.37,1.83,2.93,1.78,3.18,2.58,5.37,0,8.42l-.73,11.71-5.12-4.39,4.39,6.59-4.39-2.2c7.04,6.15,5.28,17.63,4.39,26.34-.3,2.91-4.23,22.49-5.49,23.05-5.38-.31-10.87,1.35-16.83,2.2,2.16-9.94-2.11-18.82-3.29-28.17-2.24-17.69-5.04-51.97-1.46-68.78,2.27-10.68,25.19-39.63,32.2-51.95,4-7.03,19.42-42.27,24.51-43.54,28.11.89,57.82,8.02,85.61,9.51,3.98.21,15.75.67,19.03,0,4.17-.86,6.33-4.39,8.78-5.12,15.6-4.67,37.97,20.06,42.81,33.29,1.79,4.88,4.97,19,2.93,23.42-.48,1.03-14.14,12.23-16.83,15.37-5.88,6.85-10.18,15.21-16.1,21.95-11.74,13.38-25.64,21.64-42.08,28.17l31.83-31.83-31.83,28.9,20.12-21.59-9.88,7.68,5.12-8.05-26.34,31.47,22.68-32.2c-4.65,5.26-9.82,10.31-14.27,15.73-13.3,16.23-16.6,28.48-26.34,43.91-1.28,2.03-15.8,14.96-17.2,15-2.04.06,1.46-10.16-1.46-10.24.7,5.62,1.03,11.87-5.12,13.9v-9.51l-2.93,8.78c-.15-2.92-3.15-4.9-5.85-5.12-15.14-1.25-20.52,13.43-21.22,26.34-13.06-12.19-7.22-33.07,2.56-45.73,6.19-8.02,16.66-13.65,23.42-21.22,8.94-10.02,13.12-21.24,17.56-33.66.47-1.32-1.59-1.09-1.46-1.46,2.45-7.07,6.5-13.58,9.51-20.49-.25-2.43-2.07,1.22-2.2,1.46-.85,1.62-6.68,17.49-8.78,15.37.59-.38,1.06-1.21.73-1.83Z"/>
              <g>
                <path class="st1" d="M429.22,313.25c-4.76,4.61-9.55,9.25-13.9,14.27-12.57,14.46-19.14,29.3-35.86,39.88,19.97-15.68,28.53-38.55,49.76-54.15Z"/>
                <polygon class="st1" points="432.51 313.25 418.98 328.25 399.22 354.59 388.61 363.74 432.51 313.25"/>
                <path class="st0" d="M313.24,387.89c10.68,4.73,23.2,12.11,21.22,25.61-.99-14.82-10.96-18.07-21.22-25.61Z"/>
                <path class="st22" d="M300.07,298.61l.37,8.42-4.02,10.61.37-17.2c3.13-.6.45,6.98,1.83,6.95.88-.02,1.02-8.79,1.46-8.78Z"/>
                <path class="st3" d="M316.9,392.28c7.55,5.51,16.76,13.18,15.37,23.42-1.2-11.59-9.1-15.1-15.37-23.42Z"/>
                <path class="st10" d="M433.98,305.2l-19.39,17.93c4.72-7.53,12.28-12.82,19.39-17.93Z"/>
                <path class="st1" d="M421.17,328.61c5.34-6.3,11.04-14.12,19.03-17.2-6.28,5.67-13.32,10.94-19.03,17.2Z"/>
                <path class="st17" d="M327.14,390.81c5.9,3.62,10.79,10.47,9.51,17.56l-2.56-9.15-6.95-8.42Z"/>
                <path class="st9" d="M330.8,383.5l8.42,9.15,1.1,6.95c-1.22-7.08-6.68-10.1-9.51-16.1Z"/>
                <path class="st1" d="M322.39,335.2c1.14-5.2,6.36-9.34,9.88-13.17l-9.88,13.17Z"/>
                <path class="st20" d="M324.95,403.25c3.09,3.94,6.7,10.29,4.39,15.37.42-5.84-3-10.01-4.39-15.37Z"/>
                <path class="st3" d="M322.39,324.96c-.08.04-.46,1.28-1.1,1.46l-3.29-1.1,9.15-9.15c1.43,1.51-10.08,9.98-4.76,8.78Z"/>
                <path class="st23" d="M330.8,327.15l-5.85,11.71c.17-4.06,3.57-8.27,5.85-11.71Z"/>
                <path class="st22" d="M334.46,334.47c-.83,4.59-3.88,9-5.85,13.17.11-4.57,3.7-9.32,5.85-13.17Z"/>
                <path class="st11" d="M316.9,417.16c1.81,1.48-.36,11.27-1.46,10.98l1.46-10.98Z"/>
                <path class="st20" d="M251.04,356.42c2.48,2.06,5.37,6.77,5.12,10.24l-5.12-10.24Z"/>
                <path class="st14" d="M324.95,410.57c1.11-.26,3.25,9.7.73,10.98l-.73-10.98Z"/>
                <path class="st3" d="M322.39,324.96c.88-.2,5.8-7.62,8.05-7.68-1.92,3.35-4.7,5.79-8.05,7.68Z"/>
                <path class="st10" d="M292.02,306.66c.59,0,1.02,10.73-.73,11.71-.62-3.92.6-7.81.73-11.71Z"/>
                <path class="st11" d="M258.36,345.44c1.99.74,1.48,6.25,0,7.32-.61-2.28-.61-5.04,0-7.32Z"/>
                <path class="st1" d="M325.31,343.25c.28-3.52,2.29-6.15,4.39-8.78-1.26,3-2.24,6.24-4.39,8.78Z"/>
                <path class="st22" d="M274.46,328.61c.87.17-1.25,7.39-2.2,8.05-1.16-.28,1.68-7.2,2.2-8.05Z"/>
                <path class="st11" d="M316.53,307.39l-.73-.73c.95-1.16,2.55-4.78,4.39-4.02-.93,1.87-2.36,3.21-3.66,4.76Z"/>
                <path class="st22" d="M270.07,335.93c1.24,2.39-.49,4.56-1.46,6.59-.93-.2.83-5.86,1.46-6.59Z"/>
                <path class="st8" d="M319.46,311.78c-.91,1.34-1.07,4.76-4.02,5.12.61-2.09,2.52-3.7,4.02-5.12Z"/>
                <path class="st9" d="M316.53,307.39c-1.13,1.34-2.53,3.69-4.39,4.02.74-1.89,2.41-3.23,3.66-4.76l.73.73Z"/>
                <path class="st3" d="M249.58,383.5c1.91.06,2.49,2.8,2.2,4.39l-2.2-4.39Z"/>
                <path class="st1" d="M414.59,337.4c1.29-1.76,2.18-3.21,3.66-5.12-.72.85-2.67,3.78-3.66,5.12Z"/>
                <path class="st1" d="M383.12,368.13c.61-.64,1.98-4.34,4.39-3.29-1.25,1.67-2.65,2.34-4.39,3.29Z"/>
                <path class="st15" d="M231.28,338.86c1.16-.37,2.56,0,3.29,1.1l-4.02.37c-.72-.37.51-1.39.73-1.46Z"/>
                <path class="st18" d="M317.63,316.91c2.31.37-2.52,3.99-2.93,3.66-.14-1.46,2.18-2.54,2.93-3.66Z"/>
                <path class="st1" d="M429.22,313.25c.99-.96,2.39-4.16,4.39-3.29-.94,1.84-3.26,2.46-4.39,3.29Z"/>
                <path class="st16" d="M317.63,308.13c.95,1.8-2.15,3.14-2.93,4.39-.95-1.8,2.15-3.14,2.93-4.39Z"/>
                <path class="st1" d="M418.25,332.27c1.03-1.22,1.75-2.37,2.93-3.66-.87,1.03-2.09,2.57-2.93,3.66Z"/>
                <path class="st20" d="M245.92,435.45c.37-.21,1.94,2.38.73,2.93-1.36.62-1.52-2.48-.73-2.93Z"/>
                <path class="st20" d="M403.24,351.3c1.34.45-1.3,2.98-1.46,2.93-1.34-.45,1.3-2.98,1.46-2.93Z"/>
                <path class="st1" d="M254.33,371.79c-.88-.56-2.82-1.46-1.83-2.93,1.47.68,1.42,2.19,1.83,2.93Z"/>
                <path class="st22" d="M406.17,347.64c1.34.45-1.3,2.98-1.46,2.93-1.34-.45,1.3-2.98,1.46-2.93Z"/>
                <path class="st1" d="M410.93,342.52c-.38.61-.37,2.3-1.83,2.93-1.24-1.52,1.36-2.35,1.83-2.93Z"/>
                <path class="st1" d="M412.39,340.32c.69-.91,1.52-2.01,2.2-2.93-.67.91-1.63,2.09-2.2,2.93Z"/>
                <path class="st16" d="M319.83,305.2c.75.23.62,2.72-.73,2.2-1.11-.43.48-2.27.73-2.2Z"/>
                <path class="st8" d="M319.46,311.78c.56-.82,1.02-1.58,1.83-2.2,1.38,1.99-1.71,2.08-1.83,2.2Z"/>
                <path class="st1" d="M383.12,368.13c-.16.09-.94,2.46-2.2,1.1-.3-1.79,1.96-.85,2.2-1.1Z"/>
                <path class="st20" d="M277.02,327.88c.26-.81-.67-2.38,1.1-2.2,1.34,1.26-1.05,2.08-1.1,2.2Z"/>
                <path class="st1" d="M329.7,334.47c.11-.14-.06-1.76,1.1-2.2,1.34,1.26-1.05,2.08-1.1,2.2Z"/>
                <path class="st12" d="M253.24,373.98c.48-.06,1.75,2.06.73,2.2-.48.06-1.75-2.06-.73-2.2Z"/>
                <path class="st3" d="M375.07,370.32c-.11.05-.96,2.46-2.2,1.1.42-1.14,2.1-1.01,2.2-1.1Z"/>
                <path class="st1" d="M377.27,368.86c-1.01.75-.58.69-2.2,1.46,1.28-1.09,1.14-.82,2.2-1.46Z"/>
                <path class="st22" d="M309.95,317.64c-.61-1.24-1.24-.9.37-2.2,1.17.92-.5,1.55-.37,2.2Z"/>
                <path class="st1" d="M379.46,367.4c-1.05.82-1.69,1.09-2.2,1.46.64-.39,1.46-1,2.2-1.46Z"/>
                <path class="st1" d="M410.93,342.52c.65-1.06.64-1.12,1.46-2.2-.54.8-.48,1-1.46,2.2Z"/>
                <path class="st9" d="M254.7,366.67c.48-.06,1.75,2.06.73,2.2-.48.06-1.75-2.06-.73-2.2Z"/>
                <path class="st20" d="M277.02,327.88c-.2.63.39,1.67-.37,2.2-1.34-1.07.32-2.08.37-2.2Z"/>
                <path class="st22" d="M309.95,317.64c.02.07,1.56-.2,1.46.37-.47,2.69-1.14.29-1.46-.37Z"/>
                <polygon class="st23" points="312.51 313.25 313.61 313.61 312.51 314.71 312.14 314.34 312.51 313.25"/>
              </g>
            </g>
            <g>
              <path class="st5" d="M270.8,253.98c1.43-.08,2.38-.23,3.29,1.1-12.63,26.04-25.55,52.22-43.54,75l-2.56-9.88c.47,5.32,2.11,11.08-1.1,15.73l-3.29-6.95c1.91,7.23,4.27,17.47-2.2,4.39l2.2,10.98-5.12-10.24c8.97,15.89-5.89,26.31-10.24,40.25l-2.2-7.32c-3.78-.85,1.71,5.29-.37,6.22l-2.56-4.02c10.07,15.85-19.85,50.39-35.49,44.27-1.29-.76-.65-2.09-.37-3.29,4.93-20.82,23.56-85.24,35.86-100.98,7-8.96,31.1-20.5,41.34-29.64,5.95-5.3,19.88-25.25,26.34-25.61Z"/>
              <g>
                <path class="st7" d="M203.48,311.78c4.61,1.89,10.51,2.03,12.81,6.22-1.56,1.94-15.04-2.65-14.64-3.66l12.44,2.2c.1-.59-10.41-2.35-10.61-4.76Z"/>
                <path class="st20" d="M216.65,334.47c1.88,1.52,3.36,16.82,2.2,16.83l-2.2-16.83Z"/>
                <path class="st3" d="M210.79,305.2c4.01.04,7.74,1.84,11.34,3.29-3.87.48-8.06-1.58-11.34-3.29Z"/>
                <path class="st20" d="M207.87,306.66l11.34,3.29c-3.51.42-8.6-1.02-11.34-3.29Z"/>
                <path class="st11" d="M215.92,343.25c1.61,1.12,1.29,10.96.73,10.98-.75-3.59-1.77-7.28-.73-10.98Z"/>
                <path class="st3" d="M211.53,353.49c2.16,1.12.97,6.15.73,8.05-2.16-1.12-.97-6.15-.73-8.05Z"/>
                <path class="st11" d="M198.35,378.37c1.79,2.13,1.56,7.55,1.46,10.24-1.46-2.87-1.55-7.05-1.46-10.24Z"/>
                <path class="st20" d="M231.28,316.91c.52,2.67,1.85,7.96,0,10.24-.61-3.29-.61-6.95,0-10.24Z"/>
                <path class="st3" d="M189.57,399.59l-2.2,5.85c-1.44-2.81-.76-4.39,2.2-5.85Z"/>
                <path class="st11" d="M242.26,306.66c.86,2.03-1.44,7.27-2.93,8.78.28-3.11,1.41-6.07,2.93-8.78Z"/>
                <path class="st3" d="M234.94,313.98c.92,2.68.31,5.55-.73,8.05-.72-.12-.65-7.03.73-8.05Z"/>
                <path class="st11" d="M192.5,393.74l-.73,6.59c-1.4-2.92-.3-3.89.73-6.59Z"/>
                <path class="st22" d="M226.16,324.96c.56-.09,1.83,7.32.73,7.32-.14-.81-1.82-7.15-.73-7.32Z"/>
                <path class="st17" d="M185.18,404.72l-1.46,4.39c-.72.08.17-4.3,1.46-4.39Z"/>
                <path class="st20" d="M207.87,363.74c.33,0,1.22,5.81,0,6.59-.63-.89-.52-6.59,0-6.59Z"/>
                <polygon class="st22" points="245.92 303 247.02 304.1 245.19 307.39 245.92 303"/>
                <path class="st20" d="M194.7,389.35c.57,0,.57,5.85,0,5.85-.62-.71-.53-5.85,0-5.85Z"/>
              </g>
            </g>
            <g>
              <path class="st5" d="M417.15,241.54c30.64-.71,64.88,52.08,46.47,79.39l2.93-2.2c3.55-6.71,3.02-13.81,2.93-21.22,2.51,2.89,4.96,20.26,2.56,22.32l-33.66,16.83c19.67-33.03-2.5-84.87-42.81-84.52,6.49-5.5,12.66-10.4,21.59-10.61Z"/>
              <g>
                <path class="st3" d="M464.35,315.44l1.1-14.64c-.35,6.1-2.19,10.1-4.76,15.37,1.26-3.48,3.08-9.94,3.66-13.54.62-3.88-1.26-8.83.73-10.61.43-.39,1.1-.11.73-1.46,1.94,10.2,2.38,15.07-1.46,24.88Z"/>
                <path class="st21" d="M459.59,309.59c2.06,1.89-1.54,5.61-1.83,7.68l-6.95,9.88,8.78-17.56Z"/>
                <path class="st17" d="M465.81,290.56c.37,1.35-.3,1.08-.73,1.46l-4.39-15c3.22,3.49,4.25,8.94,5.12,13.54Z"/>
                <path class="st3" d="M460.69,316.17c-1.06,2.94-1.8,5.68-4.02,8.05-.61-3.01,3.09-6.13,4.02-8.05Z"/>
                <path class="st3" d="M464.35,315.44l-3.29,7.32c-.55-2.61,2.53-5.38,3.29-7.32Z"/>
              </g>
            </g>
            <g>
              <path class="st5" d="M230.55,284.71l-26.34,19.03c-16.32,17.14-15.56,49.34-35.12,63.66-7.24,5.3-18.84,9.65-27.44,5.49-1.31-2.94,26.6-29.26,30.73-34.39,9.24-11.49,23.31-40.14,34.76-45.73,7.22-3.53,16.34-3.84,23.42-8.05Z"/>
              <path class="st11" d="M179.33,345.44c.92.3-3.54,14.43-5.12,15.37,0-1.45,4.12-15.7,5.12-15.37Z"/>
              <path class="st22" d="M170.55,357.15c1.62.58-4.91,10.07-5.85,10.98l5.85-10.98Z"/>
              <path class="st22" d="M174.21,352.03c1.94.83-2.44,9.68-2.93,9.51l2.93-9.51Z"/>
              <path class="st22" d="M160.3,366.67c2.49-.71-.67,3.74-1.46,4.39l1.46-4.39Z"/>
            </g>
            <g>
              <path class="st5" d="M190.31,305.93c-5.25,8.6-20.05,34.02-27.81,38.78-6.22,3.82-22.37,4.38-28.9.37l56.71-39.15Z"/>
              <path class="st11" d="M150.06,344.71c.52-.08,1.63-.17,1.83.37l-3.29,1.83c-1.28-.92,1.23-2.16,1.46-2.2Z"/>
              <path class="st4" d="M147.13,343.98c2.09-.28.04,2.09-1.46,2.2-.64-.53,1.33-2.18,1.46-2.2Z"/>
              <path class="st22" d="M165.79,337.4c.12-.16-.07-1.75,1.1-2.2,1.35,1.27-.96,1.97-1.1,2.2Z"/>
              <path class="st22" d="M165.79,337.4c-.12.16.07,1.75-1.1,2.2-1.35-1.27.96-1.97,1.1-2.2Z"/>
            </g>
            <g>
              <path class="st5" d="M298.24,331.54c-.72,1.38-1.01,3.89-1.46,5.12-.59,1.07-2.67,2.82-1.83,4.39,1.76-1.04,1.38-3.17,1.83-4.39,1.51-2.74,2.99-5.21,4.39-8.05.7-1.01,3.23-2.31,1.83-4.39-.97,1.16-1.27,3.25-1.83,4.39-.4.58-2.2,2.43-2.93,2.93l4.02-8.78c.99-.06,3.09,2.12,3.29,2.2l-4.76,8.78-3.66,10.24c3.08-6.15,6.44-12.4,8.42-19.03,8.65,3.17.54,7.44,3.29,8.05.23-5.34,5.11-5.58,6.22-1.83.89,3.02-3.33,9.89-3.66,13.17l5.49-9.88-2.56,9.15,3.29-5.49c-.02,2.77,4.12,5.16,1.46,7.32-14.13,1.64-28.14.57-41.71-3.66l9.51-16.1c1.92,3.5-3.99,7.48-4.39,10.98,3.44-1.71,4.37-7.3,6.22-9.88.17-.24,2.23-2.9,2.2-.73l-6.95,15.73,8.78-17.56-3.66,12.44c2.55-3.28,6.55-17.9,11.34-12.07l-9.51,19.03,7.32-12.07Z"/>
              <g>
                <path class="st9" d="M305.56,324.96c-1.97,6.63-5.33,12.87-8.42,19.03l3.66-10.24,4.76-8.78Z"/>
                <path class="st14" d="M307.39,326.42c.1,5.62-4.32,10.87-5.85,16.1.27-5.58,3.95-10.98,5.85-16.1Z"/>
                <path class="st14" d="M296.41,325.69c1.84.36-5.42,14.2-6.59,15.37l6.59-15.37Z"/>
                <path class="st22" d="M311.78,330.08c-.36,4.98-2,9.96-3.66,14.64-.92-.21,2.33-13.5,3.66-14.64Z"/>
                <path class="st9" d="M296.77,336.66c.45-1.24.74-3.74,1.46-5.12.73-.5,2.52-2.34,2.93-2.93-1.41,2.84-2.88,5.31-4.39,8.05Z"/>
                <path class="st11" d="M307.39,335.2c1.36.29-1.21,4.62-1.46,5.12-1.36-.29,1.15-4.51,1.46-5.12Z"/>
                <path class="st9" d="M296.77,336.66c-.45,1.22-.07,3.35-1.83,4.39-.84-1.57,1.24-3.32,1.83-4.39Z"/>
                <path class="st14" d="M301.17,328.61c.56-1.14.86-3.23,1.83-4.39,1.4,2.08-1.13,3.38-1.83,4.39Z"/>
                <path class="st20" d="M313.24,333c.36-.02.49.64.37,1.1-.42,2.72-1.3-1.05-.37-1.1Z"/>
              </g>
            </g>
            <g>
              <path class="st5" d="M299.34,425.94c6.65-.91,10.33,5.36,9.15,11.34-.52,2.62-8.89,12.73-11.34,14.27-19.64,12.31-8.6-24.14,2.2-25.61Z"/>
              <path class="st11" d="M304.46,435.45c2.36,1.07-.62,5.75-.73,7.32-1.09-.17.55-6.26.73-7.32Z"/>
              <path class="st20" d="M298.6,444.23c.96,1.73.2,3.63-.73,5.12-.96-1.73-.2-3.63.73-5.12Z"/>
              <path class="st11" d="M300.8,442.04c.97-.82.78,3.3,0,2.93-.58-.27-.61-2.42,0-2.93Z"/>
            </g>
          </g>
          <g>
            <path class="st5" d="M155.18,620.58c.92-.67,2.78,3.18,3.66,3.66,31.02,16.86,156.77,17.6,188.79,2.93,2.34-1.07,4.7-4.07,6.95-5.49,5-1.05-1.63,5.83-3.29,6.95-25.63,17.23-166.05,16.13-191.72-1.46-1.12-.76-6.91-4.74-4.39-6.59Z"/>
            <path class="st5" d="M229.09,445.69c.74,0,10.1,4.55,13.9,5.12,10.7,1.62,24.95.58,35.86,0l3.29,2.56c-7.66,6.65-57.54,6.9-59.27-2.2-.43-2.27,5.25-5.48,6.22-5.49Z"/>
            <path class="st5" d="M272.26,495.45c21.71,14.05-18.56,18.5-28.54,16.83s-21.54-10.1-6.59-16.1c2.07,14.09,34,14.61,35.12-.73Z"/>
            <path class="st5" d="M349.1,623.51c2.4.54-2.74,2.85-2.93,2.93-30.34,12.76-127.04,11.2-160.25,4.39l-12.81-4.02c31.29,6.43,63.46,8.32,95.49,7.68,26.42-.53,55.62-2.31,80.49-10.98Z"/>
            <path class="st5" d="M247.38,493.99c4.79,5.04,16.24-2.08,16.1,4.39,1.08.78,2.94-4.64,4.02-1.1.69,4.62-26.34,9.74-24.51-1.1.97,5.64,19.67,5.34,19.39,2.56-5.06.89-17.16,3.35-15-4.76Z"/>
            <path class="st5" d="M248.11,486.67c.65-.19,10.2,2.76,13.17.73l1.1,5.49-15,.37-1.1-4.02c.81-.53.9-2.29,1.83-2.56Z"/>
            <path class="st15" d="M252.14,447.89c-5.57,1.61-11.85-.51-17.56-1.83,7.38-3.36,6.49,1.03,6.95,1.1.26.04,2.9-2.7,4.39-2.93.43-.07,8.11,1.15,5.12,2.2l3.29-1.1c-.57.78-2.08,1.61-2.2,2.56Z"/>
            <path class="st15" d="M360.8,617.66c4.07,7.39-2.26,11.88-8.78,13.17.97-1.86,4.73-3.71,5.49-5.49,1.05-2.45-.62-5.37-.37-5.49,2.71-1.25,2.19,5.59,1.1,6.22,4.13.22.8-6.1,2.56-8.42Z"/>
            <path class="st13" d="M264.58,449.35l1.46-2.93c2.26.04,5.12.67,8.05,1.83-3.14.74-6.25,1.35-9.51,1.1Z"/>
            <path class="st13" d="M252.14,447.89c2.36-.68,3.99-2.7,6.22-3.66l-2.2,3.66,4.76-2.56c.21,3.59-9.12,5.27-8.78,2.56Z"/>
            <path class="st13" d="M265.31,446.43c-1.51.03-1.36,2.12-1.46,2.2-.96.68-3.69,1.3-4.39.37,2.28-3.42,3.05-2.47,5.85-2.56Z"/>
            <path class="st15" d="M150.06,616.92l1.46,8.05c-.77-.77-3.69-8.04-1.46-8.05Z"/>
            <path class="st13" d="M252.5,484.48c.15-.09,3.15.33,3.29,1.1l-4.02.37c-.7-.39.39-1.26.73-1.46Z"/>
            <path class="st15" d="M147.86,616.19c.57,0,.57,5.85,0,5.85-.62-.71-.53-5.85,0-5.85Z"/>
            <path class="st3" d="M240.06,496.92c.56.32,2.07,2.65,1.46,2.93-1.09.22-2.22-2.2-1.46-2.93Z"/>
            <path class="st19" d="M266.04,446.43l-1.46,2.93c-.56-.04-.81-.11-.73-.73.11-.08-.05-2.17,1.46-2.2.24,0,.49,0,.73,0Z"/>
            <g>
              <path class="st5" d="M282.14,507.16l-.37,2.2c43.96,9.59,76.63,50.41,78.3,95.13,4.14-6.87-.23-18.37-2.56-25.98-11.03-36.05-39.79-60.83-75.37-71.35,40.09-.5,75.62,43.25,83.42,80.13,1.98,9.36,5.92,18.06-1.83,24.51-29.97,24.96-174.77,22.33-209.28,4.39-2.1-1.09-10.91-7.35-11.34-9.15-.3-1.26,3.67-22.73,4.39-25.61,7.54-30.15,25.01-55.41,53.78-68.42,2.99-1.35,21.58-8.23,23.42-8.05,1.41.14,5.83,5.33,8.78,6.59,13.29,5.63,29.36,1.87,42.44-2.2,1.65-.51,4.82-3.59,5.12-3.66,1.56-.35,1.01,1.46,1.1,1.46Z"/>
              <g>
                <path class="st1" d="M282.14,507.16c35.58,10.51,64.34,35.3,75.37,71.35,2.33,7.61,6.7,19.11,2.56,25.98-1.67-44.71-34.33-85.54-78.3-95.13l.37-2.2Z"/>
                <path class="st1" d="M196.16,519.6l-19.39,19.39c-15.87,19.4-23.23,43.72-25.98,68.42.12-34.55,16.87-68.2,45.37-87.81Z"/>
                <path class="st1" d="M307.39,529.11c21.29,15.2,36.17,30.93,41.34,57.44.24,1.22,3.9,28.28-.73,20.49,2.07-1.47,1.63-4.43,1.46-6.59-1.02-13.39-7.32-35.31-15.37-46.1-7.23-9.7-19.35-15.66-26.71-25.25Z"/>
                <path class="st1" d="M320.56,532.04c23.56,16.88,37.12,44.12,37.32,73.18-3.64-29.82-14.18-53.75-37.32-73.18Z"/>
                <path class="st9" d="M197.62,531.31l-12.07,16.46c-4.74,11.11-11.05,22.36-13.17,34.39-.52,2.96-1.58,32.8-4.02,31.83,1.33-29.92,6.78-61.14,29.27-82.69Z"/>
                <path class="st20" d="M198.35,535.7l-14.27,27.44-1.1-1.1c-5.43,14.46-8.26,30.15-6.22,45.73l-2.56,6.22c.5-27.13,2.62-47.75,17.93-70.61l6.22-7.68Z"/>
                <path class="st17" d="M283.97,532.77c18.11,24.17,21.93,53.91,21.95,83.42-2.81-17.28-1.99-34.65-6.95-51.59-3.34-11.38-10.31-21.12-15-31.83Z"/>
                <path class="st9" d="M299.34,540.09c20.35,18.13,21.23,48.51,19.76,73.91-.82-26.69-.68-53.18-19.76-73.91Z"/>
                <path class="st9" d="M310.68,542.29c16.07,15.69,22.87,39.07,22.68,61.83l-1.83,5.49.37-17.93c-4.08-17.24-8.11-36.54-21.22-49.39Z"/>
                <path class="st1" d="M306.65,543.02c18.29,16.08,16.97,47.68,16.83,70.25-2.65-23.84.59-51.32-16.83-70.25Z"/>
                <path class="st1" d="M335.56,551.07c11.49,13.45,21.28,38.82,17.2,56.34-.09-19.21-6.38-40.51-17.2-56.34Z"/>
                <path class="st1" d="M323.48,545.94c14.88,14.24,23.78,39.66,21.22,60-.62-21.75-7.2-43.27-21.22-60Z"/>
                <path class="st1" d="M296.41,539.36c16.52,21.24,20.86,49.02,18.29,75.37.94-27.41-3.57-52.16-18.29-75.37Z"/>
                <path class="st1" d="M320.92,548.14h.73c11.18,14.74,15.83,32.9,19.03,50.86l-1.1,8.42c-1.07-19.04-7.06-43.85-18.66-59.27Z"/>
                <path class="st9" d="M176.04,545.21c-13.19,18.22-18.73,42.35-20.12,64.39-1.41-23.32,6.48-45.99,20.12-64.39Z"/>
                <path class="st20" d="M182.26,544.48c-12.92,20.69-16.1,43.35-18.29,67.32.41-23.39,3.86-48.3,18.29-67.32Z"/>
                <path class="st1" d="M311.41,622.05l-.73-.73c17.46-5.09,36.55-5.55,52.69-15.73-13.31,10.28-35.21,14.5-51.95,16.46Z"/>
                <path class="st22" d="M179.69,545.21c-12.84,18.28-18.35,41.11-18.29,63.3l-1.83,3.29c1.56-23.14,4.31-48.45,20.12-66.59Z"/>
                <path class="st9" d="M302.63,560.58h.73c6.8,18.87,6.85,35.78,7.68,55.61-3.65-19.04-1.66-36.76-8.42-55.61Z"/>
                <path class="st17" d="M321.65,548.14h-.73c-10.06-13.38-28.61-23.18-43.17-30.37,15.85,4.42,33.65,16.85,43.91,30.37Z"/>
                <path class="st3" d="M296.77,570.09l-.73.73c-3.08-14.69-10.86-27.32-17.93-40.25,8.95,11.35,15.63,25.37,18.66,39.51Z"/>
                <path class="st1" d="M322.75,571.56c4.02,13.08,6.64,27.25,4.39,40.98l-4.39-40.98Z"/>
                <path class="st2" d="M335.19,585.46c1.81,7.78,2.65,15.98.37,23.78l11.71-1.46-13.54,4.76,1.46-27.07Z"/>
                <path class="st9" d="M296.04,570.82l.73-.73c2.74,12.76,3.57,27.19,3.29,40.25-2.28-12.93-1.33-26.65-4.02-39.51Z"/>
                <path class="st20" d="M180.79,574.48c-2.89,11.84.72,24.08-2.93,35.86,1.55-11.8-2.01-24.48,2.93-35.86Z"/>
                <path class="st3" d="M303.36,560.58h-.73c-3.59-10.02-10.45-18.33-15-27.81l9.15,12.81c2.27,4.99,4.72,9.83,6.59,15Z"/>
                <path class="st0" d="M310.68,542.29c-6.85-6.71-16.36-11-24.15-16.46,9.79,2.82,17.22,9.7,24.15,16.46Z"/>
                <path class="st1" d="M335.56,551.07c-4.63-5.42-13.48-13.65-19.03-18.29,7.74,5.61,13.56,10.29,19.03,18.29Z"/>
                <path class="st22" d="M179.69,545.21c4.71-6.71,11.2-13.23,18.29-17.2-5.03,6.17-13.23,11.39-18.29,17.2Z"/>
                <path class="st9" d="M200.18,521.8c-6.15,5.32-15.36,13.05-20.49,19.03,6.3-7.52,12.04-13.85,20.49-19.03Z"/>
                <path class="st1" d="M303.73,519.6c5.55,3.21,11.19,6.75,15.73,11.34-5.4-2.69-11.54-7-15.73-11.34Z"/>
                <path class="st1" d="M316.53,532.77c-5.15-3.73-11.17-6.5-16.1-10.61,6.21,1.71,11.33,6.62,16.1,10.61Z"/>
                <path class="st9" d="M179.69,540.82c-.97,1.16-2.92,3.4-3.66,4.39,1.42-1.96,2.19-2.67,3.66-4.39Z"/>
                <path class="st6" d="M310.68,621.31l.73.73c-.18.02-2.47,1.74-3.66.37.85-.69,1.95-.81,2.93-1.1Z"/>
                <path class="st9" d="M200.18,521.8c.71-.62,1.36-2.28,2.93-1.83.25,1.59-2.38,1.5-2.93,1.83Z"/>
              </g>
            </g>
            <g>
              <path class="st5" d="M366.29,624.97c2.16-.66,2.14-5.67.37-7.32l-.37,7.32-1.83-6.59c.21,1.65.57,7-1.83,7.68v-9.51c5.27.85-.04-1.4,4.02-3.29,2.3,4.35,24.82,25.62,25.25,27.44.9,3.88-3.96,9.74-6.95,12.07-33.42,26.04-223.55,25.72-256.84.73-2.32-1.74-7.74-7.75-7.68-10.61.08-3.92,21.55-24.51,24.51-29.64,3.37,3.94-1.43,8.25,5.12,12.44,37.07,23.68,172.34,22.39,210.74,2.2.31-.16,3.17.93,5.49-2.93Z"/>
              <g>
                <path class="st1" d="M138.72,640.34c2.15.89.22-2.27,1.83-1.46,2.79,1.4,6.27,5.05,10.24,6.59,12.42,4.8,25.5,6.09,38.42,9.15-17.8-1.8-35.74-4.65-52.32-11.34l-4.39-5.12,8.78,5.85,7.68,1.83c-3.54-1.9-6.9-3.16-10.24-5.49Z"/>
                <path class="st1" d="M385.68,646.93c2.17-.03-.49,2.02-.73,2.2-9.72,6.98-43.77,14.44-56.34,16.1l-15,1.1c24.29-4.89,50.41-6.8,72.08-19.39Z"/>
                <path class="st2" d="M384.22,643.27c2.17-.03-.49,2.02-.73,2.2-15.78,11.29-47.3,13.53-66.22,15.73,22.72-4.27,46.79-5.45,66.96-17.93Z"/>
                <path class="st1" d="M175.3,658.63v.73c-18-2.62-36.66-5.09-51.22-17.2l26.71,11.34c8.15,1.87,16.33,3.47,24.51,5.12Z"/>
                <path class="st10" d="M371.05,628.63l-4.39,5.12c-12.83,6.96-26.92,10.32-40.98,13.9l-17.2,1.83c21.42-4.61,44.77-7.15,62.56-20.85Z"/>
                <path class="st2" d="M382.76,639.61c1.9,1.42-5.67,4.72-6.59,5.12-15.58,6.84-37.54,11.03-54.52,11.34,20.91-2.59,42.52-6.38,61.1-16.46Z"/>
                <path class="st1" d="M123.72,644.73c12.75,9.34,28.55,12.48,43.54,16.46-13.08-.45-25.99-4.95-37.69-10.61l-5.85-5.85Z"/>
                <path class="st9" d="M320.92,652.05v-.73c19.9-2.78,35.26-8.27,52.32-18.29.89-.52,1.56-1.77,1.83.37-.78,5.62-46.59,19.78-54.15,18.66Z"/>
                <path class="st1" d="M369.22,625.7c-8.67,11.48-25.85,11.35-38.42,16.1l-17.2,2.56c18.13-5.37,40.28-6.63,55.61-18.66Z"/>
                <path class="st1" d="M132.86,643.27c14.85,6.79,31.55,10.03,47.56,12.81-14.73-.2-35.59-3.91-47.56-12.81Z"/>
                <path class="st1" d="M137.62,632.29c11.86,13.65,30.56,14.69,47.2,17.93-16.18-.54-33.88-3.13-46.1-14.64l-1.1-3.29Z"/>
                <path class="st1" d="M348,649.12l-.73-.73c10.61-2.87,23.4-6.42,31.1-14.64l-7.32,8.05,10.61-4.76-9.15,5.49c-8.43,1.4-16.25,4.56-24.51,6.59Z"/>
                <path class="st1" d="M143.47,635.22l38.42,12.81c-12.82-2.02-29.3-2.73-38.42-12.81Z"/>
                <path class="st15" d="M320.92,651.32v.73c.85,1.26,3.73.77,5.12.73v.73c-7.01.6-13.83,1.51-20.85,0-1.1-1.86.42-1.27,1.46-1.46,3.77-.69,9.95-.13,14.27-.73Z"/>
                <path class="st22" d="M348,649.12c-8.45,2.07-12.78,3.61-21.95,4.39v-.73c7.26-.2,14.31-2.52,21.22-4.39l.73.73Z"/>
                <path class="st3" d="M143.47,622.78l13.54,6.95c-.71,1.67-13.8-3.89-13.54-6.95Z"/>
                <path class="st0" d="M175.3,659.37v-.73c3.16.64,6.35,1.17,9.51,1.83-3.11,1.83-6.62-.68-9.51-1.1Z"/>
                <path class="st1" d="M366.29,624.97l.37-7.32c1.77,1.65,1.79,6.66-.37,7.32Z"/>
                <path class="st1" d="M138.72,640.34c-.84-.58-4.35-1.26-3.29-3.66.87.39,3.07,3.56,3.29,3.66Z"/>
                <path class="st1" d="M369.22,625.7c.11-.09.16-3.17,2.2-1.83-.36,1.64-2.11,1.72-2.2,1.83Z"/>
                <path class="st1" d="M132.86,643.27c-.74-.34-2.32.03-2.2-1.83,1-.71,1.95,1.65,2.2,1.83Z"/>
              </g>
            </g>
            <g>
              <path class="st5" d="M253.97,466.18c13.38-2.14,15.78,16.54-2.2,14.64-12.01-1.28-6.53-13.24,2.2-14.64Z"/>
              <polygon class="st22" points="261.29 470.57 262.38 470.94 261.29 472.04 260.92 471.67 261.29 470.57"/>
            </g>
          </g>
        </g>
      </g>
    </g>
  </g>
</svg>